HIERARCHY
ROOT Hips
{
	OFFSET 0.00000 0.00000 0.00000
	CHANNELS 6 Xposition Yposition Zposition Zrotation Yrotation Xrotation 
	JOINT LHipJoint
	{
		OFFSET 0 0 0
		CHANNELS 3 Zrotation Yrotation Xrotation
		JOINT LeftHip
		{
			OFFSET 1.62964 -1.40469 0.78906
			CHANNELS 3 Zrotation Yrotation Xrotation
			JOINT LeftKnee
			{
				OFFSET 2.29640 -6.30932 0.00000
				CHANNELS 3 Zrotation Yrotation Xrotation
				JOINT LeftAnkle
				{
					OFFSET 2.29451 -6.30412 0.00000
					CHANNELS 3 Zrotation Yrotation Xrotation
					JOINT LeftToe
					{
						OFFSET 0.03611 -0.09921 1.56387
						CHANNELS 3 Zrotation Yrotation Xrotation
						End Site
						{
							OFFSET 0.00000 -0.00000 0.80291
						}
					}
				}
			}
		}
	}
	JOINT RHipJoint
	{
		OFFSET 0 0 0
		CHANNELS 3 Zrotation Yrotation Xrotation
		JOINT RightHip
		{
			OFFSET -1.73712 -1.40469 0.78906
			CHANNELS 3 Zrotation Yrotation Xrotation
			JOINT RightKnee
			{
				OFFSET -2.28137 -6.26801 0.00000
				CHANNELS 3 Zrotation Yrotation Xrotation
				JOINT RightAnkle
				{
					OFFSET -2.28681 -6.28298 0.00000
					CHANNELS 3 Zrotation Yrotation Xrotation
					JOINT RightToe
					{
						OFFSET -0.15927 -0.43759 1.61103
						CHANNELS 3 Zrotation Yrotation Xrotation
						End Site
						{
							OFFSET -0.00000 -0.00000 0.84630
						}
					}
				}
			}
		}
	}
	JOINT lowerback
	{
		OFFSET 0 0 0
		CHANNELS 3 Zrotation Yrotation Xrotation
		JOINT Chest
		{
			OFFSET -0.04227 2.04338 -0.00225
			CHANNELS 3 Zrotation Yrotation Xrotation
			JOINT Chest2
			{
				OFFSET -0.02148 2.04482 -0.04273
				CHANNELS 3 Zrotation Yrotation Xrotation
				JOINT lowerneck
				{
					OFFSET 0 0 0
					CHANNELS 3 Zrotation Yrotation Xrotation
					JOINT Neck
					{
						OFFSET 0.09180 1.44629 0.19359
						CHANNELS 3 Zrotation Yrotation Xrotation
						JOINT Head
						{
							OFFSET 0.00887 1.40645 0.14750
							CHANNELS 3 Zrotation Yrotation Xrotation
							End Site
							{
								OFFSET -0.00669 1.50671 0.03707
							}
						}
					}
				}
				JOINT LeftCollar
				{
					OFFSET 0 0 0
					CHANNELS 3 Zrotation Yrotation Xrotation
					JOINT LeftShoulder
					{
						OFFSET 2.17674 1.86763 -0.06520
CHANNELS 3 Zrotation Xrotation Yrotation
						JOINT LeftElbow
						{
OFFSET 0 -4.657760 0.000000
CHANNELS 3 Zrotation Xrotation Yrotation
							JOINT LeftWrist
							{
OFFSET 0 -3.555390 0.000000
CHANNELS 3 Zrotation Xrotation Yrotation
								JOINT lhand
								{
									OFFSET 0 0 0
CHANNELS 3 Zrotation Xrotation Yrotation
									JOINT LFingers
									{
OFFSET 0 -0.707260 0.000000
CHANNELS 3 Zrotation Xrotation Yrotation
										End Site
										{
OFFSET 0 -0.570220 0.000000
										}
									}
								}
								JOINT LThumb
								{
OFFSET 0 0.000000 0.000000
CHANNELS 3 Zrotation Xrotation Yrotation
									End Site
									{
OFFSET 0 -0.578920 0.578920
									}
								}
							}
						}
					}
				}
				JOINT RightCollar
				{
					OFFSET 0 0 0
					CHANNELS 3 Zrotation Yrotation Xrotation
					JOINT RightShoulder
					{
						OFFSET -2.80694 1.55459 -0.32496
CHANNELS 3 Zrotation Xrotation Yrotation
						JOINT RightElbow
						{
OFFSET 0 -4.719250 -0.000000
CHANNELS 3 Zrotation Xrotation Yrotation
							JOINT RightWrist
							{
OFFSET 0 -3.569900 0.000000
CHANNELS 3 Zrotation Xrotation Yrotation
								JOINT rhand
								{
									OFFSET 0 0 0
CHANNELS 3 Zrotation Xrotation Yrotation
									JOINT RFingers
									{
OFFSET 0 -0.507760 0.000000
CHANNELS 3 Zrotation Xrotation Yrotation
										End Site
										{
OFFSET 0 -0.409370 0.000000
										}
									}
								}
								JOINT RThumb
								{
OFFSET 0 0.000000 0.000000
CHANNELS 3 Zrotation Xrotation Yrotation
									End Site
									{
OFFSET 0 -0.415620 0.415620
									}
								}
							}
						}
					}
				}
			}
		}
	}
}
MOTION
Frames: 7
Frame Time: 0.008333333333333333
13.663393 17.371942 18.773747 179.138225 4.198919 -156.892705 0.000000 0.000000 0.000000 -10.501726 -18.337277 -27.747433 0.939181 6.171188 17.282384 -0.004686 3.789302 -5.114557 5.660109 -14.090680 -43.601971 0.000000 0.000000 0.000000 5.501186 24.691744 -34.292576 -10.369717 -17.612024 60.716203 -6.805647 0.079880 -49.881156 -4.385844 12.656462 -38.096314 -6.545635 -1.866809 -19.908099 -1.187946 -0.592091 1.053661 2.238015 -0.587589 12.501744 -0.611993 -0.513844 -0.881570 3.680041 0.780948 23.747107 1.465422 1.430093 7.393659 0.000000 0.000000 0.000000 10.295453 8.230181 -21.435697 17.804110 -27.905601 4.457219 21.598190 -8.152192 11.316199 0.000000 0.000000 0.000000 -7.125000 0.000000 0.000000 -3.876931 17.850333 -2.507727 0.000000 0.000000 0.000000 -8.059565 4.629837 15.708734 -26.181492 -37.386884 -8.997861 -12.613511 3.001602 51.867500 0.000000 0.000000 0.000000 7.125000 0.000000 0.000000 62.260114 75.589434 -48.448201
13.619227 17.324416 18.755241 179.209988 4.220701 -156.842225 0.000000 0.000000 0.000000 -10.567004 -18.547577 -27.935301 0.997360 6.355204 17.818620 0.033663 3.376084 -6.201800 5.665258 -14.095872 -43.623074 0.000000 0.000000 0.000000 5.340275 24.694160 -34.560169 -10.560923 -17.713209 61.346866 -6.799321 -0.054240 -49.889034 -4.443686 12.727666 -38.358717 -6.680916 -1.960895 -19.660922 -1.175667 -0.708752 1.050866 2.295717 -0.648122 12.369553 -0.630653 -0.478725 -0.875603 3.659977 0.815312 23.661525 1.461579 1.434392 7.363482 0.000000 0.000000 0.000000 10.374212 8.077373 -21.563244 17.766096 -27.856599 4.439464 21.633262 -8.180874 10.935095 0.000000 0.000000 0.000000 -7.125000 0.000000 0.000000 -3.840197 18.253838 -2.449717 0.000000 0.000000 0.000000 -8.034670 4.736116 15.858002 -26.424158 -37.624428 -9.145409 -12.859640 3.094639 51.742329 0.000000 0.000000 0.000000 7.125000 0.000000 0.000000 61.667445 75.637077 -47.972960
13.573712 17.285761 18.736735 179.329314 4.164968 -156.864376 0.000000 0.000000 0.000000 -10.603874 -18.802162 -28.022902 1.046734 6.505540 18.258767 0.073104 2.987740 -7.071733 5.625031 -14.054787 -43.457590 0.000000 0.000000 0.000000 5.275324 24.670866 -34.654414 -10.793072 -17.831749 62.106977 -6.884135 0.808334 -50.014791 -4.187744 12.403844 -37.179394 -6.556661 -2.021558 -19.562604 -1.281846 -0.811786 1.211777 2.072928 -0.692137 12.503455 -0.408222 -0.429209 -0.895538 3.556228 0.868187 23.583142 1.390698 1.461187 7.341403 0.000000 0.000000 0.000000 10.627154 7.595355 -21.479073 17.643626 -27.698332 4.382374 21.771237 -8.129857 10.626492 0.000000 0.000000 0.000000 -7.125000 0.000000 0.000000 -3.733661 18.571730 -2.355328 0.000000 0.000000 0.000000 -7.760650 4.554127 15.890870 -26.569064 -37.765046 -9.234081 -12.811267 3.128864 51.271815 0.000000 0.000000 0.000000 7.125000 0.000000 0.000000 59.988742 75.433795 -46.281467
13.529549 17.250711 18.717778 179.458155 4.067065 -156.875508 0.000000 0.000000 0.000000 -10.623615 -19.061906 -28.127831 1.095206 6.649565 18.681635 0.107387 2.683136 -7.768027 5.597775 -14.026874 -43.345245 0.000000 0.000000 0.000000 5.241726 24.642615 -34.760129 -11.022517 -17.945230 62.853666 -6.931136 1.249756 -50.095271 -4.101935 12.294830 -36.783027 -6.472672 -2.111870 -19.575521 -1.328525 -0.943719 1.433189 1.926667 -0.760242 12.776138 -0.379162 -0.365468 -0.842652 3.551143 0.904584 23.268114 1.377614 1.456729 7.227321 0.000000 0.000000 0.000000 10.763301 7.004155 -21.247857 17.484446 -27.491735 4.308756 21.882116 -7.932346 10.452614 0.000000 0.000000 0.000000 -7.125000 0.000000 0.000000 -3.650164 18.748436 -2.287985 0.000000 0.000000 0.000000 -7.552940 4.205059 15.844556 -26.619612 -37.814012 -9.264957 -12.905782 3.250185 50.465491 0.000000 0.000000 0.000000 7.125000 0.000000 0.000000 57.128720 75.114970 -43.485283
13.487018 17.220667 18.700136 179.550354 3.846870 -156.920057 0.000000 0.000000 0.000000 -10.673907 -19.383850 -28.214182 1.146804 6.799232 19.122328 0.139254 2.425911 -8.371348 5.587166 -14.015995 -43.301465 0.000000 0.000000 0.000000 5.256458 24.468108 -34.826869 -11.206680 -18.034672 63.450918 -6.903404 0.971430 -50.056573 -4.278253 12.508698 -37.576213 -6.470493 -2.238350 -19.387977 -1.335109 -1.128942 1.589576 1.861794 -0.854432 12.864399 -0.428345 -0.332120 -0.798946 3.582406 0.910606 23.041354 1.390201 1.440316 7.144105 0.000000 0.000000 0.000000 10.854806 6.520029 -21.053031 17.325560 -27.284932 4.235580 21.907524 -7.656760 10.302880 0.000000 0.000000 0.000000 -7.125000 0.000000 0.000000 -3.628010 18.906446 -2.261017 0.000000 0.000000 0.000000 -7.382612 3.971679 15.759742 -26.648939 -37.842264 -9.282889 -12.942879 3.335617 50.170235 0.000000 0.000000 0.000000 7.125000 0.000000 0.000000 56.101442 74.992076 -42.483017
13.446934 17.198660 18.685988 179.548210 3.384931 -157.052958 0.000000 0.000000 0.000000 -10.811953 -19.844861 -28.240334 1.206538 6.968217 19.621423 0.170622 2.195692 -8.930891 5.602314 -14.031571 -43.364058 0.000000 0.000000 0.000000 5.352204 23.959509 -34.791929 -11.288565 -18.073400 63.715078 -6.739850 -0.558652 -49.786411 -4.893887 13.258519 -40.352282 -6.618114 -2.419339 -18.625794 -1.307599 -1.409107 1.535415 1.909881 -0.985262 12.387954 -0.467644 -0.383280 -0.848534 3.600340 0.862519 23.253210 1.405135 1.427097 7.223417 0.000000 0.000000 0.000000 10.958340 6.392058 -21.087971 17.203662 -27.125450 4.179776 21.761618 -7.345085 10.075876 0.000000 0.000000 0.000000 -7.125000 0.000000 0.000000 -3.725257 19.160745 -2.300887 0.000000 0.000000 0.000000 -7.233347 4.171674 15.663996 -26.722392 -37.913144 -9.327976 -12.705586 3.251732 51.391642 0.000000 0.000000 0.000000 7.125000 0.000000 0.000000 60.490407 75.437582 -46.731220
13.407107 17.160993 18.693686 179.955265 4.045613 -156.158674 0.000000 0.000000 0.000000 -10.280589 -19.592835 -29.607497 1.272781 7.149059 20.158216 0.195932 2.365520 -9.571631 5.510039 -13.935730 -42.981365 0.000000 0.000000 0.000000 4.725441 24.778648 -36.589941 -11.619448 -18.223223 64.775209 -6.582417 -1.355849 -49.387175 -5.387986 13.799360 -42.456428 -6.500110 -2.290562 -19.322420 -1.279059 -1.205516 1.376924 1.925684 -0.880302 12.588201 -0.581629 -0.367292 -0.630113 3.659452 0.878099 23.113156 1.439723 1.423738 7.137632 0.000000 0.000000 0.000000 10.947235 5.947360 -20.731305 17.060821 -26.937743 4.114950 21.810710 -6.909490 9.921625 0.000000 0.000000 0.000000 -7.125000 0.000000 0.000000 -3.686341 19.321992 -2.263687 0.000000 0.000000 0.000000 -7.152648 4.036836 15.681987 -26.718452 -37.909338 -9.325569 -12.693770 3.076921 51.244264 0.000000 0.000000 0.000000 7.125000 0.000000 0.000000 59.956873 75.378388 -46.194442
